<svg id="Layer_1" data-name="Layer 1" xmlns="http://www.w3.org/2000/svg" xmlns:xlink="http://www.w3.org/1999/xlink" viewBox="0 0 900.87 226.78"><defs><style>.cls-1{fill:#a0cc3a;}.cls-2{fill:#71cff5;}.cls-3{fill:url(#linear-gradient);}.cls-4{fill:url(#linear-gradient-2);}</style><linearGradient id="linear-gradient" x1="77.36" y1="70.22" x2="295.75" y2="70.22" gradientUnits="userSpaceOnUse"><stop offset="0.1" stop-color="#71cff5"/><stop offset="1" stop-color="#8ac440"/></linearGradient><linearGradient id="linear-gradient-2" x1="77.56" y1="131.98" x2="296" y2="131.98" xlink:href="#linear-gradient"/></defs><path class="cls-1" d="M755.32,113.21c0-16.12-13.41-29.19-30-29.19s-30,13.07-30,29.19v8.63c0,12.73,13.41,25.17,30,25.17s28.36-8.53,30-21.31h-15A16.86,16.86,0,0,1,725.45,135c-9.12,0-15.86-6.87-16.24-16.37l45.93-.24Zm-45.86-4.29c2.34-7.67,7.91-13.17,15.28-13.17s12.73,3.54,15.89,12.85Z"/><path class="cls-2" d="M388.91,122.57h-1.18l-.54,1.05A13.82,13.82,0,0,1,375,131.24c-6.82,0-11.95-4.6-13-11.42l40.77-.21h1.86l.07-1.86.17-4.82v-.07c0-16.11-13.42-29.21-29.92-29.21S345,96.74,345,112.85v8.06c0,13.56,14,25.45,29.93,25.45,16.27,0,28.29-8.68,29.91-21.6l.27-2.19H388.91ZM374.34,98.49c5.69,0,9.47,2.53,12,8.14l-23.47.24C365.25,101.64,369.47,98.49,374.34,98.49Z"/><polygon class="cls-2" points="456.27 84.7 454.97 84.7 454.48 85.91 439.14 123.65 424.41 85.94 423.93 84.7 422.61 84.7 408.08 84.7 405.15 84.7 406.29 87.4 430.06 143.51 430.56 144.7 431.85 144.7 447.03 144.7 448.32 144.7 448.82 143.51 472.59 87.4 473.73 84.7 470.8 84.7 456.27 84.7"/><path class="cls-2" d="M527.51,83.84c-7.71,0-13.2,4.3-16.48,8V84.7h-29V99.81h13.86v29.78H482.06V144.7h54.06V129.59H513V108.35a14.84,14.84,0,0,1,13-6.82,27.49,27.49,0,0,1,11.24,2.68l2.84,1.47V87.44L539,86.9A25.13,25.13,0,0,0,527.51,83.84Zm-.2,2h.2l.52,0Z"/><path class="cls-2" d="M598.87,84.7h-1.29l-.5,1.2-15.92,38.34L567,86l-.47-1.27H546.34l1.26,2.75,24.78,54.13c-3.3,10.34-15.47,11.15-19.19,11.15-.64,0-1,0-1.05,0l-2.08-.14v15.11l1.8.13c1,.07,2.07.11,3.08.11,25.71,0,35.19-24,35.83-25.74l24.4-54.74,1.22-2.73H598.87ZM554.94,166h-.18c.45,0,.9,0,1.34,0C555.71,166,555.33,166,554.94,166Z"/><path class="cls-1" d="M657.6,83.74a21.88,21.88,0,0,0-17,8.05V85.15H627.21v58.67h15.55v-36a11.31,11.31,0,1,1,22.62,0v36.05h14.13V105.65A21.91,21.91,0,0,0,657.6,83.74Z"/><path class="cls-1" d="M823.52,97.52V85.86H795.86V59H782.08V85.86H762.91V97.52h19.17v27c0,11.8,9.93,20.05,21.91,21.38,12.8,1.41,19.53-3.18,19.53-3.18V131.45c-5.66,3.53-12.9,3.53-12.9,3.53-8.2,0-14.76-7.28-14.76-16.26V97.52Z"/><path class="cls-3" d="M79.71,98.69l6.08,3.22a8.87,8.87,0,0,0,8.26,0l82.19-43.38a21.23,21.23,0,0,1,19.74,0l83,43.43a8.87,8.87,0,0,0,8.2,0l6.15-3.22a4.42,4.42,0,0,0,0-7.84L196,39.92a21.2,21.2,0,0,0-19.74,0L79.72,90.88A4.41,4.41,0,0,0,79.71,98.69Z"/><path class="cls-4" d="M279.23,125l-81.94,43.27a21.17,21.17,0,0,1-19.74,0l-62.26-32.56a4.42,4.42,0,0,1,0-7.82l5.92-3.13a8.87,8.87,0,0,1,8.26,0l47.08,24.87a21.19,21.19,0,0,0,19.75,0L258,117.39a4.42,4.42,0,0,0,0-7.84L196,77.1a21.2,21.2,0,0,0-19.74,0L79.91,128a4.42,4.42,0,0,0,0,7.83l97.66,51.07a21.2,21.2,0,0,0,19.74,0L293.64,136a4.41,4.41,0,0,0,0-7.82L287.46,125A8.84,8.84,0,0,0,279.23,125Zm-128.72-15.5L176.42,95.8a21.23,21.23,0,0,1,19.74,0l26.38,13.8a4.42,4.42,0,0,1,0,7.83L196.33,131.1a21.19,21.19,0,0,1-19.75,0l-26.07-13.77A4.42,4.42,0,0,1,150.51,109.47Z"/><polygon class="cls-2" points="382.12 39.14 381.59 38.02 380.36 38.02 369.78 38.02 368.55 38.02 368.02 39.14 353.49 70.19 352.19 72.96 355.25 72.96 369.12 72.96 370.47 72.96 370.94 71.7 375.25 60.22 380.57 71.83 381.09 72.96 382.34 72.96 394.89 72.96 397.95 72.96 396.65 70.19 382.12 39.14"/></svg>