<svg xmlns="http://www.w3.org/2000/svg" width="140" height="30" viewBox="0 0 140 30" fill="none">
<g clip-path="url(#clip0_1_17123)">
<path d="M28.0026 17.6645L12.39 2.11647C9.55632 -0.705503 4.96199 -0.705503 2.1283 2.11647L2.12568 2.11908C-0.708018 4.94105 -0.708018 9.51638 2.12568 12.3383L17.7383 27.8864C20.572 30.7083 25.1663 30.7083 28 27.8863L28.0026 27.8837C30.8363 25.0618 30.8363 20.4864 28.0026 17.6645Z" fill="#d2095a"/>
<path d="M71.9057 0.00732422L67.9795 22.5009L64.0495 0.00732422H60.1233L65.3607 29.9999H66.6683H69.287H70.5982L75.8356 0.00732422H71.9057Z" fill="#d2095a"/>
<path d="M96.7891 3.92101V0.00732422H87.6217H83.6918V3.92101V13.0468V16.9605V26.09V29.9999H87.6217H96.7891V26.09H87.6217V16.9605H96.7891V13.0468H87.6217V3.92101H96.7891Z" fill="#d2095a"/>
<path d="M111.194 26.09V0.00732422H107.264V26.09V29.9999H111.194H120.358V26.09H111.194Z" fill="#d2095a"/>
<path d="M132.973 0H132.633C130.766 0 128.976 0.738392 127.656 2.05274C126.337 3.36708 125.595 5.14972 125.595 7.00848V22.9989C125.595 24.8577 126.337 26.6403 127.656 27.9546C128.976 29.269 130.766 30.0074 132.633 30.0074H132.973C134.84 30.0074 136.63 29.269 137.95 27.9546C139.27 26.6403 140.011 24.8577 140.011 22.9989V7.00848C140.011 5.14972 139.27 3.36708 137.95 2.05274C136.63 0.738392 134.84 0 132.973 0V0ZM136.077 23.1944C136.077 24.0387 135.741 24.8484 135.141 25.4453C134.542 26.0423 133.729 26.3777 132.881 26.3777H132.725C131.878 26.3777 131.064 26.0423 130.465 25.4453C129.866 24.8484 129.529 24.0387 129.529 23.1944V6.80561C129.529 5.96134 129.866 5.15164 130.465 4.55465C131.064 3.95766 131.878 3.62228 132.725 3.62228H132.881C133.729 3.62228 134.542 3.95766 135.141 4.55465C135.741 5.15164 136.077 5.96134 136.077 6.80561V23.1944Z" fill="#d2095a"/>
<path d="M37.1511 14.4596C41.1585 14.4596 44.4072 11.2243 44.4072 7.23344C44.4072 3.24257 41.1585 0.00732422 37.1511 0.00732422C33.1436 0.00732422 29.895 3.24257 29.895 7.23344C29.895 11.2243 33.1436 14.4596 37.1511 14.4596Z" fill="#d2095a"/>
</g>
<defs>
<clipPath id="clip0_1_17123">
<rect width="140" height="30" fill="#d2095a"/>
</clipPath>
</defs>
</svg>