<svg width="210" height="60" viewBox="0 0 210 60" fill="none" xmlns="http://www.w3.org/2000/svg">
<g clip-path="url(#clip0_966_5082)">
<path fill-rule="evenodd" clip-rule="evenodd" d="M126.308 16.9161C126.509 17.3908 126.804 17.8187 127.176 18.1732C127.527 18.5483 127.951 18.8463 128.422 19.0483C128.893 19.2504 129.4 19.3522 129.912 19.3473C130.412 19.349 130.907 19.2448 131.365 19.0413C131.823 18.8378 132.233 18.5396 132.569 18.166C132.932 17.8062 133.22 17.3766 133.415 16.9027C133.61 16.4288 133.709 15.9202 133.705 15.4071C133.683 14.3996 133.277 13.4394 132.57 12.7268C131.863 12.0142 130.911 11.6041 129.912 11.5821C129.403 11.5794 128.899 11.6793 128.429 11.876C127.959 12.0727 127.533 12.3622 127.176 12.7274C126.807 13.0693 126.513 13.4848 126.313 13.9473C126.113 14.4099 126.01 14.9095 126.011 15.4143C126.007 15.9302 126.108 16.4414 126.308 16.9161ZM133.269 25.3765H126.125L126.183 58.3533H133.326L133.269 25.3765ZM10.2935 58.5234C12.9543 59.3342 15.7258 59.7131 18.5043 59.6456C22.2141 59.6139 25.905 59.1078 29.4888 58.1392L26.6751 50.508C25.5767 50.8905 23.4576 51.3222 22.1511 51.5884L22.0209 51.6149C20.6146 51.9016 19.2271 51.9071 17.7954 51.9128H17.7953L17.6505 51.9134C15.4467 52.0054 13.2596 51.4917 11.3222 50.4271C9.63999 49.4768 8.16613 47.7883 8.16613 45.4326V27.4515C8.12754 26.3793 8.50638 25.3443 9.07348 24.2007C9.60209 23.1346 10.2328 22.4925 10.9208 21.7921L11.0719 21.638C11.9253 20.8374 12.9304 20.2196 14.0266 19.8217C15.1228 19.4238 16.2874 19.254 17.4503 19.3227C20.161 19.4049 23.9673 19.9945 26.4648 21.0617L29.2084 14.5629C25.3797 12.706 21.1991 11.7059 16.9523 11.6309C14.7059 11.5523 12.4668 11.9306 10.3681 12.7435C8.26951 13.5564 6.35423 14.7872 4.73623 16.3626C1.55204 19.5373 0 24.1982 0 30.2645V42.1039C0.00667545 46.721 0.824415 50.3103 2.45322 52.8716C4.35637 55.5987 7.12102 57.5916 10.2935 58.5234ZM44.9724 59.1457C49.0372 59.1025 52.0305 57.914 54.0379 55.5008C56.0191 53.0997 57.0097 50.0431 57.0097 46.331V37.6366C57.0097 33.6387 55.9381 30.4981 53.8093 28.2002C51.6804 25.9024 48.7014 24.757 44.9152 24.757C40.9504 24.7858 37.9214 25.8735 35.8211 28.1138C33.7208 30.3228 32.6707 33.5163 32.6707 37.6942V46.3958C32.5639 49.7149 33.6756 52.957 35.7925 55.5008C37.8285 57.9428 40.9075 59.189 44.9724 59.1457ZM44.9152 32.1116C46.1742 32.0704 47.4125 32.4419 48.4443 33.1705V33.1345C49.4015 33.8116 49.873 35.3387 49.9445 37.7014V47.0657C49.9948 47.7609 49.8928 48.4587 49.6459 49.1098C49.399 49.7608 49.0132 50.3491 48.5157 50.8331C47.5287 51.6983 46.2505 52.1494 44.9438 52.0937C43.6208 52.1511 42.3202 51.7352 41.2719 50.9195C40.336 50.1272 39.8431 48.8594 39.8431 47.0946V37.7302C39.8145 33.9989 41.5362 32.1116 44.9152 32.1116ZM63.5104 18.2956C63.1388 17.9395 62.8437 17.5102 62.6434 17.0344C62.4431 16.5586 62.3419 16.0464 62.3459 15.5295C62.3443 15.0268 62.4471 14.5293 62.6476 14.069C62.8482 13.6087 63.1421 13.1959 63.5104 12.8571C63.8687 12.4913 64.2961 12.2015 64.7672 12.0048C65.2383 11.8081 65.7437 11.7085 66.2536 11.7117C66.7505 11.7106 67.2424 11.8116 67.6993 12.0085C68.1562 12.2054 68.5685 12.4942 68.9111 12.8571C69.2722 13.2001 69.5594 13.6144 69.7548 14.0741C69.9502 14.5339 70.0496 15.0293 70.047 15.5295C70.0498 16.0436 69.9508 16.5531 69.7558 17.0281C69.5607 17.5031 69.2735 17.934 68.9111 18.2956C68.5751 18.667 68.1657 18.9633 67.7092 19.1655C67.2527 19.3677 66.7593 19.4714 66.2608 19.4697C65.7479 19.4686 65.2404 19.3641 64.7681 19.1625C64.2958 18.9609 63.8682 18.6661 63.5104 18.2956ZM62.4602 25.4989H69.6041L69.6612 58.483H62.5174L62.4602 25.4989ZM93.2426 33.429C94.2719 34.5884 94.8059 36.1105 94.7286 37.6646L94.7214 58.4102H101.865V35.6332C101.945 33.5336 101.43 31.4546 100.379 29.6401C99.4166 28.0577 97.9917 26.8146 96.3002 26.0816C94.5101 25.2523 92.5544 24.8505 90.5851 24.9075C88.6425 24.9072 86.7126 25.2234 84.8701 25.8439L84.0271 25.4621H77.7048L77.762 58.4462H84.9058V33.0184C86.2519 32.2835 87.7481 31.8718 89.2778 31.8155C90.0152 31.7781 90.7519 31.9031 91.4365 32.1818C92.1212 32.4604 92.7375 32.886 93.2426 33.429ZM107.559 49.6871L107.488 12.2946H114.803V25.4047H121.061L119.511 32.1758H114.874V49.6943C114.874 51.1926 115.282 52.1867 116.132 52.6909C117.218 53.2557 118.433 53.5192 119.654 53.4545L117.511 59.2171C110.881 59.0875 107.588 55.9468 107.559 49.6871ZM175.976 38.2485C175.976 35.8714 175.654 34.1643 175.011 33.1054C174.699 32.5852 174.25 32.162 173.714 31.8824C173.178 31.6028 172.577 31.4776 171.975 31.5206C170.584 31.6128 169.216 31.9289 167.924 32.4571L166.817 32.9325C166.913 33.2281 166.983 33.5319 167.024 33.8401C167.024 34.0203 167.039 34.1931 167.054 34.3621C167.068 34.5241 167.081 34.6827 167.081 34.8414V58.2666H159.938V38.4574C159.938 36.2532 159.445 34.5748 158.423 33.4151C157.924 32.8319 157.3 32.3702 156.598 32.0646C155.897 31.7589 155.136 31.6173 154.373 31.6503C152.69 31.6965 151.05 32.1937 149.622 33.091V58.3026H142.478L142.421 25.3258H148.743L149.593 25.794C151.136 25.1146 152.804 24.7757 154.487 24.7999C155.95 24.7898 157.402 25.0486 158.773 25.5635C160.172 26.0553 161.431 26.8807 162.445 27.9694C163.059 27.6164 163.96 27.1482 165.188 26.5287C167.509 25.4018 170.043 24.7901 172.618 24.7351C174.008 24.6814 175.395 24.9087 176.696 25.4035C177.998 25.8983 179.189 26.6507 180.198 27.6164C182.155 29.5373 183.136 32.1785 183.141 35.5401V58.317H175.997L175.976 38.2485ZM193.85 50.0084C193.674 49.5128 193.601 48.9862 193.635 48.4611V46.6242L209.902 45.7598V35.7616C209.873 32.3256 208.873 29.5595 206.844 27.6507C204.815 25.7418 202.001 24.7693 198.386 24.7693C194.771 24.7693 191.885 25.7634 189.67 27.7371C187.456 29.7108 186.377 32.4697 186.377 36.0281V49.52C186.377 52.7255 187.341 55.1386 189.235 56.7233C191.128 58.308 193.664 59.1004 196.9 59.1004C198.928 59.0959 200.947 58.8296 202.908 58.308C204.803 57.8156 206.612 57.0334 208.273 55.9886L205.644 49.7217C202.293 51.4865 199.643 52.3725 197.629 52.3725C197.09 52.4099 196.55 52.338 196.039 52.1611C195.529 51.9841 195.059 51.7058 194.657 51.3424C194.3 50.9579 194.026 50.5039 193.85 50.0084ZM198.3 31.7926C199.415 31.7605 200.504 32.1367 201.365 32.8515C201.791 33.2201 202.127 33.683 202.346 34.204C202.565 34.7251 202.662 35.2902 202.629 35.8553V39.3201L193.621 39.9395V35.9993C193.638 34.9366 194.031 33.915 194.728 33.118C195.443 32.2392 196.643 31.7926 198.3 31.7926Z" fill="#38C100"/>
</g>
<defs>
<clipPath id="clip0_966_5082">
<rect width="209.902" height="60" fill="white"/>
</clipPath>
</defs>
</svg>
