<?xml version="1.0" encoding="utf-8"?>
<!-- Generator: Adobe Illustrator 26.5.0, SVG Export Plug-In . SVG Version: 6.00 Build 0)  -->
<svg version="1.1" id="Layer_1" xmlns="http://www.w3.org/2000/svg" xmlns:xlink="http://www.w3.org/1999/xlink" x="0px" y="0px"
	 viewBox="0 0 1005.1 571.9" style="enable-background:new 0 0 1005.1 571.9;" xml:space="preserve">
<style type="text/css">
	.st0{fill:#E8413E;}
</style>
<g>
	<path class="st0" d="M314.2,413.9c0-211.8,316.5-211.2,316.5,0S314.2,624,314.2,413.9z M544.1,413.9c0-100.9-143.2-100.4-143.2,0
		C400.9,513.2,544.1,513.8,544.1,413.9z"/>
	<path class="st0" d="M315.8,113.9c0-152,227.3-151.7,227.3,0c0,129.7-166.3,147.9-214.4,56C320.5,154.4,315.8,135.7,315.8,113.9z
		 M480.8,113.9c0-72.5-102.8-72.1-102.8,0C378,185.2,480.8,185.6,480.8,113.9z"/>
	<path class="st0" d="M148.3,110.6l39.3-80.8h-87l-66,134.6C13.4,189.8,0,224.2,0,267.5c0,208.2,313.6,209.3,313.6,0
		C313.6,159.1,229.4,106.7,148.3,110.6z M85.9,267.5c0-99.5,141.9-100,141.9,0C227.7,366.5,85.9,365.9,85.9,267.5z"/>
	<g>
		<g>
			<path class="st0" d="M631.2,287.4l14.9-2.3c2.5,10.2,11.1,16,21.5,16c9.2,0,17.7-4.4,17.7-12.3c0-4.8-3-7.9-9.5-9.9l-22.1-6.5
				c-7.6-2.2-19.1-6.8-19.1-21.9c0-16.5,13.9-25.2,31.3-25.1c17.6,0.2,30,9.2,33.8,25.1l-15.4,2.7c-1.8-9-9.8-14.1-18.6-14.3
				c-8.6-0.2-16.1,4.3-16.1,11c0,6.4,6.6,8.7,12.4,10.2l15.4,4.3c8.3,2.3,23,6.5,23,23.6c0,17.8-16,26.7-33.6,26.7
				C647.9,314.5,633.9,304.2,631.2,287.4z"/>
			<path class="st0" d="M721.5,238.7v-13.2h14.3v13.2H721.5z M721.5,312.7v-64.3h14.3v64.3H721.5z"/>
			<path class="st0" d="M753.7,312.7l23.5-32.5l-23-31.8h16.9l14.5,20.5l14.2-20.5h16.9l-23,31.8l23.6,32.5h-16.9l-14.8-21.3
				l-14.9,21.3H753.7z"/>
			<path class="st0" d="M852.8,259.7v26c0,5.1-0.2,9.1,1.3,11.5c2.9,4.8,9.5,4.7,17.6,3.5v12c-12.7,2.4-25.7,1.3-30.7-7.9
				c-3-5.5-2.4-11-2.4-18.3v-26.8h-11.7v-11.3h11.7v-17.9h14.3v17.9h18.9v11.3H852.8z"/>
			<path class="st0" d="M916.8,294.5l17.5-46h14.3l-30.3,78.9h-14l5.6-15.1l-26-63.9h14.9L916.8,294.5z"/>
		</g>
		<g>
			<path class="st0" d="M743.3,412.5V426h-55.4v-85.7h55.4v13.5h-41v21.1h33.9v13.5h-33.9v24.2L743.3,412.5L743.3,412.5z"/>
			<path class="st0" d="M765.9,351.9v-13.2h14.3v13.2H765.9z M765.9,426v-64.3h14.3V426H765.9z"/>
			<path class="st0" d="M849.4,361.7H862v67.4c0,3.3-0.2,6.2-0.9,9c-2.9,12.4-14.2,18.2-28.8,18.2c-10.7,0-20.5-5.2-25.5-14
				l13.2-6.5c2.4,4.6,7.3,6.9,12.4,6.9c8.9,0,15.4-4.7,15.2-13.9v-6.1c-4.3,3.2-9.9,5.1-16.5,5.1c-17.8,0-29.3-14.6-29.3-33.9
				c0-19.5,11.7-33.9,29.9-33.9c7.3,0,13.3,2.3,17.8,6.4v-4.7H849.4z M849.4,393.8c0-12.6-4.7-21.1-15.7-21.1
				c-11.5,0-16.8,9.4-16.8,21.1c0,11.8,5.2,21.1,16.4,21.1C844.8,414.9,849.4,406.3,849.4,393.8z"/>
			<path class="st0" d="M944.7,390.1V426h-14.5v-31c0-7.9-1.3-21.7-15-21.7c-7.3,0-15.1,4-15.1,19.6v33h-14.5v-85.7h12.8v28.6
				c4.7-5.5,11.7-9,21-9C943.1,359.8,944.7,382.5,944.7,390.1z"/>
			<path class="st0" d="M986.2,372.9v26c0,5.1-0.2,9.1,1.3,11.5c2.9,4.8,9.5,4.7,17.6,3.5v12c-12.7,2.4-25.7,1.3-30.7-7.9
				c-3-5.5-2.4-11-2.4-18.3v-26.8h-11.8v-11.3h11.7v-17.9h14.3v17.9h18.9v11.3H986.2z"/>
		</g>
		<path class="st0" d="M574.6,160c0-26,17.1-45.6,42.1-45.6c19.2,0,32.5,10.3,37.6,26.7l-14.1,3.9c-3.3-10.9-11-17.4-23.5-17.4
			c-16.8,0-27.3,14.2-27.4,32.5c0,18.3,10.6,28.3,27.4,28.3c12.5,0,20.3-6.6,23.5-17.4l14.1,3.9c-5.2,16.4-18.4,26.7-37.6,26.7
			C591.7,201.5,574.6,185.9,574.6,160z"/>
		<path class="st0" d="M753.5,127.8v-13.2h14.3v13.2H753.5z M753.5,201.8v-64.3h14.3v64.3L753.5,201.8L753.5,201.8z"/>
		<path class="st0" d="M851.8,165.9v35.9h-14.5v-31c0-7.9-1.3-21.7-15-21.7c-7.3,0-15.1,4-15.1,19.6v33h-14.5v-64.3h12.8v7.1
			c4.7-5.5,11.7-9,21-9C850.2,135.7,851.8,158.3,851.8,165.9z"/>
		<path class="st0" d="M667.6,170c0-43.9,65.7-43.8,65.7,0c0,37.5-48,42.7-61.9,16.2C668.9,181.7,667.6,176.3,667.6,170z M718.4,170
			c0-25.4-36-25.3-36,0C682.4,195,718.4,195.1,718.4,170z"/>
	</g>
</g>
</svg>
