<?xml version="1.0" encoding="UTF-8"?>
<!DOCTYPE svg PUBLIC "-//W3C//DTD SVG 1.1//EN" "http://www.w3.org/Graphics/SVG/1.1/DTD/svg11.dtd">
<!-- Creator: CorelDRAW 2021 (64-Bit) -->
<svg xmlns="http://www.w3.org/2000/svg" xml:space="preserve" width="10.3832in" height="2.76899in" version="1.1" style="shape-rendering:geometricPrecision; text-rendering:geometricPrecision; image-rendering:optimizeQuality; fill-rule:evenodd; clip-rule:evenodd"
viewBox="0 0 10504.63 2801.36"
 xmlns:xlink="http://www.w3.org/1999/xlink"
 xmlns:xodm="http://www.corel.com/coreldraw/odm/2003">
 <defs>
  <style type="text/css">
   <![CDATA[
    .fil1 {fill:#ED3237}
    .fil2 {fill:#373435;fill-rule:nonzero}
    .fil0 {fill:#ED3237;fill-rule:nonzero}
   ]]>
  </style>
 </defs>
 <g id="Layer_x0020_1">
  <metadata id="CorelCorpID_0Corel-Layer"/>
  <g id="_2263455545584">
   <polygon class="fil0" points="2978.34,2142.9 2978.34,816.71 3643.98,816.71 3643.98,2142.9 "/>
   <polygon class="fil0" points="534.5,2144.24 534.5,469.49 -0,469.49 -0,7.28 1758,7.28 1758,469.49 1230.4,469.49 1230.4,2144.24 "/>
   <path class="fil0" d="M1942.99 1474.25c0,52.41 15.96,96.9 46.96,133.9 31,36.99 72.95,55.5 125.38,55.5 55.63,0 98.03,-18.06 127.67,-54.18 30.1,-36.11 44.68,-81.04 44.68,-135.22 0,-55.06 -14.59,-101.3 -44.68,-138.3 -29.64,-36.99 -72.04,-55.5 -127.67,-55.5 -52.43,0 -94.38,18.94 -125.38,56.82 -31.01,37.88 -46.96,83.25 -46.96,136.98zm367.5 670.8l0 -201.29c-131.77,167.81 -282.23,251.5 -451.39,251.5 -181.01,0 -322.36,-77.52 -424.95,-232.12 -88.91,-132.58 -133.6,-290.26 -133.6,-473.48 0,-190.27 42.86,-352.36 128.58,-486.7 100.31,-156.36 243.93,-234.76 429.96,-234.76 165.51,0 307.77,73.12 425.86,219.35l0 -176.62 644.26 0 0 1334.12 -618.73 0z"/>
   <polygon class="fil1" points="1849.5,447.44 2144.35,447.44 2319.22,753.78 2159.67,753.78 "/>
   <g>
    <path class="fil0" d="M2197.43 386.05l0 -182.25 -69.59 0 0 -88.6 264.24 0 0 88.6 -69.66 0 0 182.25 -124.99 0zm234.96 0l0 -270.85 124.98 0 0 90.12 76.57 0 0 -90.12 124.98 0 0 270.85 -124.98 0 0 -95.48 -76.57 0 0 95.48 -124.98 0zm791.9 0l0 -270.85 127.09 0 0 270.85 -127.09 0zm468.45 -110.26l0 43.26 20.84 0c25.88,0 38.77,-7.2 38.77,-21.6 0,-14.46 -12.89,-21.66 -38.77,-21.66l-20.84 0zm0 -96.24l0 37.95 16.39 0c20.76,0 31.14,-6.37 31.14,-19.07 0,-12.57 -10.38,-18.88 -31.14,-18.88l-16.39 0zm-117.44 206.5l0 -270.85 166.35 0c36.09,0 64.07,6.44 83.86,19.33 19.79,12.89 29.77,31.07 29.77,54.5 0,31.08 -18.09,49.77 -54.17,56.08 46.71,7.39 70.07,28.87 70.07,64.36 0,51.09 -43.31,76.6 -130.01,76.6l-165.87 0zm445.67 -98.45l52.23 0 -10.87 -30.69c-8.43,-24.06 -13.05,-43.89 -14.03,-59.55l-2.35 0c-0.97,15.67 -5.76,35.49 -14.28,59.55l-10.7 30.69zm-165.86 98.45l124.01 -270.85 139.25 0 121.67 270.85 -134.24 0 -11.19 -34.04 -94.57 0 -10.71 34.04 -134.22 0zm253.05 -335.27l-55.56 48.5 -29.03 0 32.12 -48.5 52.48 0zm324.82 251.47c18.49,0 33.18,-5.05 43.96,-15.16 9.65,-9.29 14.51,-21.23 14.51,-35.93 0,-14.9 -4.86,-27.09 -14.51,-36.44 -10.78,-10.1 -25.47,-15.16 -43.96,-15.16 -18.65,0 -33.17,4.86 -43.39,14.59 -10.22,9.79 -15.33,22.1 -15.33,37.01 0,14.96 5.11,27.16 15.33,36.76 10.22,9.54 24.73,14.33 43.39,14.33zm186.06 -51.09c0,20.27 -4.62,38.71 -13.78,55.32 -9.66,17.62 -22.8,32.96 -39.42,45.91 -35.68,27.21 -79.96,40.86 -132.85,40.86 -52.72,0 -97.16,-13.77 -133.33,-41.24 -34.96,-26.77 -52.48,-60.37 -52.48,-100.85 0,-40.67 17.68,-74.52 52.96,-101.55 35.37,-27.03 79.65,-40.54 132.85,-40.54 53.21,0 97.57,13.51 132.94,40.54 35.44,27.03 53.12,60.88 53.12,101.55z"/>
    <path class="fil0" d="M2984.43 300.56c17.89,0 32.1,-5.09 42.53,-15.31 9.34,-9.37 14.05,-21.42 14.05,-36.27 0,-15.06 -4.71,-27.36 -14.05,-36.8 -10.43,-10.19 -24.64,-15.31 -42.53,-15.31 -18.06,0 -32.11,4.91 -41.99,14.74 -9.9,9.88 -14.84,22.31 -14.84,37.36 0,15.1 4.94,27.42 14.84,37.11 9.88,9.62 23.93,14.47 41.99,14.47zm180.03 -51.58l0 -0.39c0,20.47 -4.47,39.09 -13.33,55.85 -9.34,17.86 -22.05,33.29 -38.15,46.36 -34.53,27.55 -77.38,41.25 -128.55,41.25 -51.02,0 -94.04,-13.83 -129.03,-41.63 -33.83,-27.03 -50.78,-60.96 -50.78,-101.83 0,-41.06 17.11,-75.24 51.25,-102.53 34.21,-27.29 77.07,-40.94 128.56,-40.94 25.44,0 49.04,3.45 70.79,10.34 20.72,6.56 40.1,16.89 58.23,30.98 9.5,7.08 16.72,14.22 21.82,21.49 9.02,-0.76 15.3,-6.64 18.83,-17.6 2.44,-8.92 3.38,-23.53 2.75,-43.68l36.8 0c0.32,28.5 -3.54,48.65 -11.46,60.51 -6.91,10.71 -18.83,16.84 -35.72,18.3 12.02,18.56 17.98,39.73 17.98,63.51z"/>
    <polygon class="fil0" points="2960.05,45.9 3011.05,45.9 3042.14,94.8 3013.81,94.8 "/>
   </g>
   <g>
    <polygon class="fil0" points="6591.93,2142.9 6591.93,816.71 7257.57,816.71 7257.57,2142.9 "/>
    <path class="fil0" d="M7320.14 2146.78l0 -1327.71 648.86 0 0 183.66c112.77,-150.79 256,-226.18 429.24,-226.18 149.14,0 265.55,43.4 350.12,130.19 84.58,87.23 126.41,203.39 126.41,348.91l0 891.13 -667.05 0 0 -670.21c0,-115.72 -32.29,-173.58 -95.95,-173.58 -80.03,0 -120.04,57.86 -120.04,173.58l0 670.21 -671.6 0z"/>
    <path class="fil0" d="M4996.18 2146.77l0 -2136.56 656.87 0 0 680.48c0,89.83 -0.53,149.42 -2.71,177.64l-9.49 122.26c112.04,-152.38 254.34,-228.58 426.47,-228.58 148.18,0 263.83,43.86 347.86,131.57 84.03,88.15 125.59,205.54 125.59,352.61l0 900.58 -665.45 0 0 -677.32c0,-55.37 -3.17,-93.47 -9.49,-114.29 -12.2,-40.75 -40.2,-61.13 -83.13,-61.13 -79.51,0 -119.26,58.47 -119.26,175.42l0 677.32 -667.26 0z"/>
    <path class="fil0" d="M8932.57 2136.56l0 -2136.56 656.87 0 0 680.48c0,89.83 -0.53,149.42 -2.71,177.64l-9.49 122.26c112.04,-152.38 254.34,-228.58 426.47,-228.58 148.18,0 263.82,43.86 347.86,131.57 84.03,88.15 125.59,205.54 125.59,352.61l0 900.58 -665.45 0 0 -677.32c0,-55.37 -3.17,-93.47 -9.49,-114.29 -12.2,-40.75 -40.2,-61.13 -83.13,-61.13 -79.51,0 -119.26,58.47 -119.26,175.42l0 677.32 -667.26 0z"/>
    <path class="fil0" d="M4943.31 1376.61c-72.63,-60.88 -147.99,-91.54 -226.07,-91.54 -147.08,0 -220.62,64.43 -220.62,192.85 0,59.1 19.97,105.32 59.92,138.65 39.95,33.33 89.88,50.21 150.26,50.21 78.08,0 157.07,-33.33 236.51,-100.43l0 535.02c-136.18,64.43 -266.47,96.43 -389.49,96.43 -207.46,0 -379.05,-65.76 -514.78,-197.74 -145.26,-138.2 -217.89,-310.17 -217.89,-516.8 0,-131.98 33.14,-255.07 99.42,-369.71 66.73,-114.65 157.97,-203.52 274.18,-267.07 106.23,-59.1 226.07,-88.43 359.07,-88.43 107.13,0 236.96,24.89 389.49,74.21l0 544.35z"/>
    <polygon class="fil1" points="6886.02,751.87 7050.68,751.87 7357.01,446.81 7067.26,446.81 "/>
    <g>
     <path class="fil0" d="M7614.68 2269.71l0 23.82c-13.7,0.87 -23.32,2.62 -29.09,5.35 -5.67,2.73 -10.88,7.76 -15.63,15.19 -4.76,7.42 -10.42,19.44 -16.99,35.83l-149.81 365.58 -18.92 0 -165.78 -357.71c-12.91,-27.75 -23.32,-45.23 -31.14,-52.33 -7.81,-7.1 -21.18,-11.03 -40.08,-11.69l0 -24.04 191.03 0 0 23.93c-24.23,1.2 -38.62,2.73 -43.25,4.59 -4.64,1.86 -6.91,6.23 -6.91,13.11 0,3.82 1.93,10.38 5.78,19.45 3.84,9.18 9.73,23.48 17.89,42.94l97.16 217.86 91.94 -231.84c0.79,-2.51 2.39,-6.77 4.53,-12.89 2.26,-6.12 4.07,-11.8 5.54,-17.15 1.47,-5.35 2.27,-9.62 2.27,-12.67 0,-9.07 -3.17,-14.97 -9.4,-17.7 -6.34,-2.84 -19.37,-4.69 -39.18,-5.68l0 -23.93 150.04 0zm37.94 438.56l0 -24.15c22.42,-0.22 37.48,-1.75 45.29,-4.59 7.81,-2.95 13.02,-7.75 15.63,-14.42 2.6,-6.78 3.85,-17.81 3.85,-33.11l0 -286.69c0,-15.63 -1.35,-26.55 -3.96,-33 -2.61,-6.34 -7.59,-10.81 -14.84,-13.22 -7.36,-2.4 -22.65,-4.26 -45.97,-5.46l0 -23.93 211.75 0 0 24.04c-21.63,0.76 -36.35,2.29 -43.93,4.58 -7.71,2.3 -13.25,6.67 -16.54,13.33 -3.28,6.56 -4.98,17.81 -4.98,33.65l0 286.69c0,12.13 1.02,21.52 3.06,27.97 2.04,6.55 5.1,11.47 9.06,14.64 4.08,3.28 9.63,5.58 16.65,6.88 7.13,1.31 19.25,2.29 36.69,2.84l0 23.93 -211.75 0zm639.34 -120.95l-31.94 120.95 -371.65 0 0 -24.04c19.03,-1.31 31.83,-3.06 38.62,-5.46 6.79,-2.29 11.67,-6.88 14.72,-13.55 3.06,-6.77 4.64,-17.92 4.64,-33.54l0 -286.14c0,-15.63 -1.58,-26.66 -4.64,-33.11 -3.05,-6.45 -8.04,-10.82 -14.83,-13.11 -6.79,-2.4 -19.59,-4.15 -38.5,-5.46l0 -24.15 367.23 0 2.15 104.45 -29.33 0c-3.74,-22.18 -8.38,-37.47 -14.04,-45.88 -5.66,-8.42 -14.37,-14.2 -26.38,-17.26 -11.89,-3.06 -30.24,-4.59 -54.92,-4.59l-90.14 0c-6.79,0 -11.09,0.54 -12.68,1.64 -1.59,1.2 -2.38,5.79 -2.38,13.88l0 137.23 95.8 0c14.38,0 25.37,-0.98 33.18,-2.84 7.81,-1.86 13.69,-4.7 17.66,-8.41 3.97,-3.72 7.13,-9.07 9.51,-16.28 2.26,-7.1 4.64,-18.25 6.91,-33.44l28.08 0 0 161.48 -27.96 0c-3.29,-20.87 -6.8,-34.85 -10.54,-42.17 -3.62,-7.21 -9.28,-12.13 -16.87,-14.64 -7.58,-2.51 -20.94,-4.04 -40.09,-4.37l-95.69 -1.31 0 153.18c0,8.63 0.91,13.87 2.84,15.95 1.92,1.96 8.03,3.39 18.34,4.15 10.31,0.76 34.09,1.1 71.34,1.1 21.06,0 38.72,-1.31 52.77,-3.83 14.15,-2.62 26.38,-6.88 36.57,-12.89 10.19,-5.9 19.36,-14.1 27.51,-24.58 8.15,-10.48 16.2,-24.8 24.35,-42.94l30.35 0zm-245.72 178.64c0,-4.8 1.24,-9.94 3.73,-15.29 2.5,-5.35 6.56,-9.95 12,-13.77 5.55,-3.83 12.34,-5.68 20.38,-5.68 10.87,0 19.82,3.39 26.84,10.16 7.13,6.77 10.65,14.96 10.65,24.58 0,9.83 -3.62,18.14 -10.76,25.02 -7.25,6.88 -16.08,10.38 -26.72,10.38 -8.26,0 -15.06,-1.86 -20.49,-5.68 -5.43,-3.83 -9.39,-8.42 -11.89,-13.77 -2.49,-5.46 -3.73,-10.82 -3.73,-15.96zm577.63 -81.61l0 23.93 -208.13 0 0 -23.93c23.1,-0.98 38.39,-3.17 45.75,-6.67 7.36,-3.39 12,-8.85 13.93,-16.17 1.93,-7.32 2.83,-19.55 2.83,-36.71l0 -315.75 -28.99 0c-25.14,0 -43.59,1.86 -55.37,5.57 -11.89,3.72 -20.94,10.82 -27.29,21.2 -6.46,10.38 -12.35,28.95 -17.89,55.72l-28.2 0 4.08 -121.82 388.74 0 4.3 121.82 -28.42 0c-5.1,-26.88 -10.87,-45.45 -17.44,-55.94 -6.56,-10.38 -15.74,-17.48 -27.4,-21.08 -11.78,-3.6 -30.24,-5.46 -55.26,-5.46l-29.32 0 0 322.96c0,14.86 1.24,25.68 3.85,32.23 2.6,6.66 7.81,11.48 15.63,14.53 7.81,2.96 22.76,4.81 44.62,5.58zm768.32 -414.63l0 24.15c-14.84,1.43 -25.82,2.95 -32.73,4.81 -7.01,1.75 -12.56,4.7 -16.87,8.74 -4.19,4.15 -7.58,11.03 -10.07,20.87 -2.5,9.83 -3.74,23.81 -3.74,41.95l0 345.25 -21.18 0 -293.39 -352.58 8.83 0 0 244.63c0,21.74 1.7,37.91 4.98,48.4 3.39,10.49 8.72,17.7 16.08,21.52 7.36,3.82 21.29,6.12 41.79,6.88l0 23.93 -170.08 0 0 -23.81c20.94,-1.21 35.21,-3.61 42.92,-7.21 7.7,-3.72 13.14,-10.49 16.53,-20.54 3.29,-10.06 4.99,-26.44 4.99,-49.17l0 -281.66c-11.45,-13.66 -20.73,-22.29 -27.75,-25.9 -7.13,-3.71 -19.37,-5.57 -36.69,-5.57l0 -24.69 123.99 0 255.13 309.63 -8.94 0 0 -209.11c0,-23.38 -1.93,-40.1 -5.66,-50.15 -3.86,-10.05 -9.29,-16.61 -16.53,-19.55 -7.25,-3.06 -21.07,-5.25 -41.56,-6.45l0 -24.36 169.97 0zm503.34 414.3l0 24.26 -183.22 0 0 -24.69c18.8,0 31.37,-1.1 37.37,-3.39 6,-2.3 9.06,-7.32 9.06,-15.3 0,-6.23 -4.19,-20.43 -12.69,-42.4l-25.03 -53.21 -165.1 0 -28.65 68.51c-3.52,9.94 -5.21,18.13 -5.21,24.58 0,8.96 3.51,14.75 10.53,17.37 7.13,2.51 18.68,3.83 34.65,3.83l0 24.69 -145.28 0 0 -24.26c16.3,-0.98 28.08,-5.02 35.21,-12.35 9.4,-9.94 25.93,-41.3 49.72,-94.28l138.26 -314.88 22.54 0 167.37 368.74c7.69,16.72 13.81,28.19 18.22,34.74 4.53,6.45 9.4,10.93 14.39,13.33 5.09,2.29 14.38,3.93 27.85,4.7zm-326.35 -153.39l140.18 0 -70.32 -164.65 -69.87 164.65zm935.46 -260.91l0 24.26c-18.91,1.31 -31.83,3.17 -38.62,5.46 -6.8,2.29 -11.66,6.66 -14.72,13.11 -3.05,6.33 -4.65,17.37 -4.65,33.21l0 286.25c0,15.73 1.48,26.99 4.53,33.65 3.06,6.67 7.93,11.14 14.72,13.44 6.8,2.4 19.71,4.15 38.74,5.46l0 23.71 -200.1 0 0 -23.81c21.4,-1.21 35.45,-3.28 42.47,-6.23 6.91,-2.95 11.66,-8.09 14.27,-15.63 2.6,-7.54 3.85,-20.11 3.85,-37.8l0 -282.32 9.85 0 -169.18 365.79 -18.35 0 -165.89 -351.04 9.97 0 0 250.31c0,21.74 1.7,37.91 4.98,48.4 3.39,10.49 8.72,17.7 16.08,21.52 7.36,3.82 21.29,6.12 41.79,6.88l0 23.93 -170.08 0 0 -23.81c20.95,-1.21 35.21,-3.61 42.92,-7.21 7.7,-3.72 13.14,-10.49 16.53,-20.54 3.29,-10.06 4.99,-26.44 4.99,-49.17l0 -261.78c0,-15.51 -1.48,-26.66 -4.53,-33.21 -2.95,-6.56 -7.93,-11.03 -15.06,-13.22 -7.03,-2.29 -21.52,-4.04 -43.6,-5.25l0 -24.36 143.02 0 149.25 324.38 143.02 -324.38 143.82 0z"/>
     <polygon class="fil0" points="8188.45,2243.1 8158.68,2243.1 8088.13,2193.1 8018.6,2243.1 7989.61,2243.1 8066.73,2150.41 8110.55,2150.41 "/>
    </g>
   </g>
   <path class="fil2" d="M663.26 2456.48l0 64.64 -4.15 0c-3.13,-16.96 -8.91,-29.98 -17.43,-39.02 -8.52,-9.04 -18.16,-13.53 -28.93,-13.53 -8.99,0 -17.25,3.33 -24.78,10.02 -7.5,6.7 -12.99,15.46 -16.49,26.28 -4.48,13.86 -6.7,29.28 -6.7,46.23 0,16.67 1.64,31.9 4.88,45.62 3.27,13.68 8.37,24.08 15.32,31.06 6.95,7.03 15.97,10.54 27.04,10.54 9.1,0 17.39,-2.58 24.97,-7.68 7.53,-5.15 15.5,-13.96 23.87,-26.51l0 16.02c-8.08,10.91 -16.52,18.83 -25.29,23.75 -8.77,4.92 -19,7.35 -30.71,7.35 -15.43,0 -29.11,-3.98 -41.05,-11.94 -11.97,-7.96 -21.22,-19.44 -27.69,-34.33 -6.52,-14.94 -9.75,-30.82 -9.75,-47.68 0,-17.75 3.6,-34.61 10.81,-50.54 7.21,-15.92 16.92,-28.29 29.18,-37.1 12.23,-8.76 25.22,-13.16 39.01,-13.16 10.15,0 20.85,2.86 32.13,8.52 6.55,3.33 10.7,4.97 12.45,4.97 2.29,0 4.26,-1.08 5.93,-3.23 1.67,-2.15 2.73,-5.57 3.23,-10.26l4.15 0zm174.06 96.72c0,23.61 -5.39,44.4 -16.12,62.34 -14.23,23.79 -34.31,35.69 -60.3,35.69 -26.06,0 -46.18,-11.33 -60.41,-34 -11.24,-17.94 -16.89,-39.16 -16.89,-63.74 0,-27.63 7.32,-50.68 21.98,-69.13 13.76,-17.28 31.73,-25.9 53.93,-25.9 9.54,0 18.34,1.68 26.38,5.06 3.2,1.26 8.95,4.36 17.29,9.27 5.86,3.47 10.66,5.25 14.49,5.34 4.25,0.19 7.38,-0.1 9.35,-0.8 1.78,-0.66 3.05,-2.11 3.86,-4.4 0.33,-0.8 0.37,-1.55 0.11,-2.15 -1.64,-1.03 -4,-3.66 -7.06,-7.92 -1.71,-3.74 -2.15,-7.35 -1.39,-10.82 0.73,-3.61 2.58,-6.51 5.64,-8.67 3.02,-2.11 6.19,-2.48 9.46,-1.12 3.86,1.45 6.66,4.54 8.41,9.37 1.74,4.82 1.89,10.12 0.47,15.92 -1.71,6.46 -5.31,11.1 -10.88,13.91 -3.64,1.92 -10.3,2.86 -19.98,2.86 14.45,18.41 21.65,41.36 21.65,68.9zm-76.53 -86.04c-25.84,0 -38.76,29.13 -38.76,87.45 0,31.71 4.37,55.17 13.06,70.35 6.08,10.59 14.56,15.88 25.48,15.88 15.68,0 26.71,-11.66 33.08,-34.94 3.49,-12.79 5.24,-29.55 5.24,-50.16 0,-42.53 -6.33,-69.51 -18.96,-81.03 -5.56,-5.01 -11.93,-7.54 -19.14,-7.54zm243.32 181.54c3.27,12.13 8.37,21.27 15.25,27.36 6.91,6.13 15.54,9.18 25.91,9.18 2.84,0 5.86,-0.37 9.06,-1.13l0 8.43c-10.73,3.56 -20.35,5.34 -28.79,5.34 -13.24,0 -25.07,-4.17 -35.48,-12.51 -10.41,-8.34 -18.27,-20.56 -23.51,-36.68 -17.47,-4.78 -31.55,-15.78 -42.25,-33.11 -10.7,-17.33 -16.05,-37.98 -16.05,-61.96 0,-27.87 7.28,-51.01 21.76,-69.46 14.52,-18.45 32.93,-27.68 55.28,-27.68 22.24,0 40.58,9.27 55.03,27.77 14.45,18.5 21.65,41.59 21.65,69.37 0,24.17 -5.64,45.2 -16.96,63.04 -11.32,17.89 -24.96,28.57 -40.9,32.04zm-19 -181.82c-12.81,0 -22.7,8.57 -29.66,25.71 -5.86,14.38 -8.77,34.9 -8.77,61.45 0,31.94 4.37,55.6 13.14,70.96 6.11,10.73 14.55,16.11 25.29,16.11 10.81,0 19.25,-5.29 25.29,-15.83 8.77,-15.13 13.14,-37.85 13.14,-68.2 0,-29.88 -2.73,-51.52 -8.22,-64.92 -6.84,-16.86 -16.89,-25.29 -30.21,-25.29zm89.49 -6.19l74.68 0 0 4.78 -3.75 0c-5.64,0 -9.5,0.75 -11.61,2.29 -2.11,1.5 -3.6,3.6 -4.48,6.28 -0.91,2.67 -1.35,9.37 -1.35,20.09l0 91.14c0,16.68 0.98,27.68 2.91,33.07 1.96,5.43 5.17,9.89 9.64,13.49 4.48,3.56 10.15,5.34 16.96,5.34 7.82,0 14.48,-2.25 19.98,-6.8 5.49,-4.54 9.61,-10.77 12.34,-18.73 2.73,-7.96 4.11,-21.83 4.11,-41.59l0 -75.92c0,-8.38 -0.69,-14.43 -2.04,-17.99 -1.35,-3.61 -3.05,-6.09 -5.13,-7.5 -3.2,-2.11 -7.72,-3.18 -13.57,-3.18l0 -4.78 50 0 0 4.78 -2.98 0c-4.04,0 -7.38,1.08 -10.08,3.18 -2.69,2.11 -4.66,5.29 -5.86,9.56 -0.91,2.95 -1.38,8.24 -1.38,15.93l0 70.72c0,21.87 -1.13,37.66 -3.35,47.35 -2.26,9.74 -7.68,18.64 -16.34,26.79 -8.7,8.15 -20.49,12.22 -35.48,12.22 -12.52,0 -22.16,-2.15 -28.97,-6.46 -9.32,-5.86 -15.9,-13.35 -19.72,-22.53 -3.82,-9.13 -5.75,-21.45 -5.75,-36.91l0 -91.19c0,-10.82 -0.47,-17.52 -1.39,-20.14 -0.94,-2.62 -2.51,-4.73 -4.8,-6.32 -2.29,-1.55 -6.48,-2.3 -12.59,-2.2l0 -4.78zm243.28 133.21l-50.62 0 -6.3 18.17c-2,6.09 -2.98,11.14 -2.98,15.13 0,5.29 1.64,9.18 4.88,11.71 1.93,1.45 6.66,2.57 14.2,3.33l0 4.78 -48.08 0 0 -4.78c5.17,-1.03 9.46,-3.84 12.77,-8.38 3.35,-4.59 7.5,-14.05 12.37,-28.39l51.68 -148.43 2.04 0 52.15 152.55c4.99,14.61 9.06,23.84 12.26,27.63 2.44,2.9 5.82,4.54 10.26,5.01l0 4.78 -69.94 0 0 -4.78 2.88 0c5.6,0 9.57,-1.03 11.83,-3.09 1.57,-1.45 2.33,-3.6 2.33,-6.37 0,-1.68 -0.18,-3.42 -0.62,-5.2 -0.14,-0.8 -1.2,-4.31 -3.2,-10.44l-7.9 -23.23zm-3.42 -10.12l-21.58 -63.47 -22.09 63.47 43.67 0zm124.75 -123.09l71.3 115.41 0 -80c0,-11.29 -1.24,-18.88 -3.75,-22.85 -3.42,-5.39 -9.17,-7.96 -17.21,-7.77l0 -4.78 47.82 0 0 4.78c-6.11,1.03 -10.22,2.34 -12.34,3.94 -2.08,1.64 -3.71,4.26 -4.92,7.91 -1.16,3.65 -1.74,9.93 -1.74,18.78l0 155.13 -3.6 0 -97.72 -155.31 0 118.78c0,10.77 1.89,18.08 5.72,21.87 3.82,3.79 8.22,5.67 13.14,5.67l3.42 0 0 4.78 -51.53 0 0 -4.78c8.01,-0.1 13.54,-2.2 16.7,-6.37 3.13,-4.17 4.7,-11.19 4.7,-21.17l0 -131.75 -3.02 -4.82c-3.06,-5.06 -5.75,-8.38 -8.12,-9.98 -2.33,-1.59 -5.72,-2.48 -10.12,-2.67l0 -4.78 51.27 0zm303.65 -4.21l0 64.64 -4.15 0c-3.13,-16.96 -8.91,-29.98 -17.43,-39.02 -8.52,-9.04 -18.16,-13.53 -28.93,-13.53 -8.99,0 -17.25,3.33 -24.78,10.02 -7.5,6.7 -12.99,15.46 -16.49,26.28 -4.48,13.86 -6.7,29.28 -6.7,46.23 0,16.67 1.64,31.9 4.88,45.62 3.27,13.68 8.37,24.08 15.32,31.06 6.95,7.03 15.97,10.54 27.04,10.54 9.1,0 17.39,-2.58 24.97,-7.68 7.53,-5.15 15.5,-13.96 23.87,-26.51l0 16.02c-8.08,10.91 -16.52,18.83 -25.29,23.75 -8.77,4.92 -19,7.35 -30.71,7.35 -15.43,0 -29.11,-3.98 -41.05,-11.94 -11.97,-7.96 -21.22,-19.44 -27.69,-34.33 -6.52,-14.94 -9.75,-30.82 -9.75,-47.68 0,-17.75 3.6,-34.61 10.81,-50.54 7.21,-15.92 16.92,-28.29 29.18,-37.1 12.23,-8.76 25.22,-13.16 39.01,-13.16 10.15,0 20.85,2.86 32.13,8.52 6.55,3.33 10.7,4.97 12.45,4.97 2.29,0 4.26,-1.08 5.93,-3.23 1.67,-2.15 2.73,-5.57 3.23,-10.26l4.15 0zm17.07 4.21l74.68 0 0 4.78 -3.75 0c-5.64,0 -9.5,0.75 -11.61,2.29 -2.11,1.5 -3.61,3.6 -4.48,6.28 -0.91,2.67 -1.35,9.37 -1.35,20.09l0 91.14c0,16.68 0.98,27.68 2.91,33.07 1.97,5.43 5.17,9.89 9.64,13.49 4.48,3.56 10.16,5.34 16.96,5.34 7.82,0 14.49,-2.25 19.98,-6.8 5.5,-4.54 9.61,-10.77 12.34,-18.73 2.73,-7.96 4.11,-21.83 4.11,-41.59l0 -75.92c0,-8.38 -0.69,-14.43 -2.04,-17.99 -1.35,-3.61 -3.05,-6.09 -5.13,-7.5 -3.2,-2.11 -7.72,-3.18 -13.57,-3.18l0 -4.78 50 0 0 4.78 -2.98 0c-4.04,0 -7.39,1.08 -10.08,3.18 -2.69,2.11 -4.66,5.29 -5.86,9.56 -0.91,2.95 -1.38,8.24 -1.38,15.93l0 70.72c0,21.87 -1.13,37.66 -3.35,47.35 -2.25,9.74 -7.68,18.64 -16.34,26.79 -8.7,8.15 -20.49,12.22 -35.48,12.22 -12.52,0 -22.17,-2.15 -28.97,-6.46 -9.31,-5.86 -15.9,-13.35 -19.72,-22.53 -3.82,-9.13 -5.75,-21.45 -5.75,-36.91l0 -91.19c0,-10.82 -0.47,-17.52 -1.38,-20.14 -0.95,-2.62 -2.51,-4.73 -4.8,-6.32 -2.29,-1.55 -6.48,-2.3 -12.59,-2.2l0 -4.78zm87.85 -35.03c-5.89,4.5 -9.42,7.59 -10.63,9.32 -1.2,1.78 -1.96,4.59 -2.33,8.57l-5.68 0c0.62,-7.91 3.09,-14.71 7.39,-20.33 3.09,-4.03 4.62,-7.91 4.62,-11.61 0,-6.8 -3.53,-10.21 -10.63,-10.21 -2.48,0 -4.55,0.47 -6.26,1.41 -1.71,0.94 -2.55,1.78 -2.55,2.62 0,0.75 0.62,1.92 1.86,3.56 1.23,1.64 1.86,2.9 1.86,3.84 0,3.23 -2.19,4.87 -6.59,4.87 -2.84,0 -5.17,-0.7 -6.91,-2.15 -1.78,-1.4 -2.66,-3.33 -2.66,-5.71 0,-3.75 2.26,-6.89 6.74,-9.42 4.48,-2.53 10.19,-3.79 17.07,-3.79 8.92,0 15.54,1.78 19.87,5.39 3.2,2.62 4.8,5.62 4.8,8.9 0,4.68 -3.31,9.6 -9.97,14.75zm155.43 168.24l-50.62 0 -6.3 18.17c-2,6.09 -2.98,11.14 -2.98,15.13 0,5.29 1.64,9.18 4.88,11.71 1.93,1.45 6.66,2.57 14.19,3.33l0 4.78 -48.08 0 0 -4.78c5.17,-1.03 9.46,-3.84 12.77,-8.38 3.35,-4.59 7.5,-14.05 12.37,-28.39l51.68 -148.43 2.04 0 52.15 152.55c4.99,14.61 9.06,23.84 12.26,27.63 2.44,2.9 5.83,4.54 10.26,5.01l0 4.78 -69.95 0 0 -4.78 2.88 0c5.6,0 9.57,-1.03 11.83,-3.09 1.56,-1.45 2.33,-3.6 2.33,-6.37 0,-1.68 -0.18,-3.42 -0.62,-5.2 -0.15,-0.8 -1.2,-4.31 -3.2,-10.44l-7.9 -23.23zm-3.42 -10.12l-21.58 -63.47 -22.09 63.47 43.67 0zm209.95 -35.64c13.79,4.12 23.51,9.13 29.08,14.99 8.01,8.34 12,19.16 12,32.46 0,14 -4.37,25.62 -13.14,34.8 -10.73,11.1 -26.34,16.63 -46.8,16.63l-73.51 0 0 -4.78c6.7,0 11.25,-0.8 13.61,-2.44 2.4,-1.59 4.08,-3.7 5.02,-6.28 0.98,-2.57 1.46,-8.95 1.46,-19.11l0 -121.12c0,-10.16 -0.47,-16.53 -1.46,-19.16 -0.94,-2.62 -2.66,-4.73 -5.06,-6.32 -2.44,-1.55 -6.95,-2.34 -13.57,-2.34l0 -4.78 69.36 0c16.59,0 28.31,1.92 35.23,5.72 6.92,3.8 12.34,9.46 16.34,17 3.97,7.54 5.97,15.6 5.97,24.07 0,8.99 -2.55,16.96 -7.64,23.98 -5.09,6.98 -14.05,12.55 -26.89,16.67zm-38.87 -3.7c10.19,0 17.72,-1.45 22.56,-4.4 4.84,-2.9 8.55,-7.03 11.14,-12.37 2.58,-5.29 3.9,-12.08 3.9,-20.33 0,-8.24 -1.27,-14.99 -3.82,-20.23 -2.55,-5.29 -6.19,-9.28 -10.95,-12.04 -4.73,-2.76 -12.34,-4.07 -22.82,-3.98l0 73.35zm0 10.68l0 59.67 0 6.88c0,4.92 0.95,8.67 2.88,11.15 1.93,2.53 4.77,3.79 8.55,3.79 5.61,0 10.74,-1.64 15.47,-4.87 4.73,-3.23 8.33,-7.91 10.85,-14.1 2.51,-6.14 3.79,-13.02 3.79,-20.56 0,-8.67 -1.42,-16.44 -4.23,-23.33 -2.84,-6.88 -6.99,-11.75 -12.52,-14.57 -5.53,-2.81 -13.79,-4.17 -24.78,-4.07zm171.81 -96.67c23.04,-1.08 41.78,7.54 56.19,25.9 14.41,18.41 21.62,41.36 21.62,68.99 0,23.56 -5.39,44.31 -16.13,62.25 -14.23,23.75 -34.31,35.64 -60.3,35.64 -26.06,0 -46.18,-11.33 -60.41,-34 -11.24,-17.94 -16.88,-39.16 -16.88,-63.74 0,-27.63 7.31,-50.63 21.94,-69.04 14.63,-18.45 32.61,-27.07 53.97,-25.99zm1.27 8.71c-13.28,0 -23.36,8.67 -30.31,26.04 -5.64,14.24 -8.44,34.71 -8.44,61.41 0,31.71 4.37,55.17 13.06,70.35 6.08,10.59 14.56,15.88 25.48,15.88 7.35,0 13.5,-2.29 18.41,-6.84 6.26,-5.86 11.17,-15.22 14.67,-28.06 3.49,-12.83 5.24,-29.6 5.24,-50.21 0,-24.59 -1.78,-43 -5.35,-55.17 -3.56,-12.23 -8.12,-20.84 -13.65,-25.86 -5.53,-5.01 -11.9,-7.54 -19.1,-7.54zm-10.15 -42.44l19.87 0 17.03 19.96 -5.02 0 -22.38 -9.28 -21.51 9.28 -5.02 0 17.04 -19.96zm9.89 236.35c4.99,0 9.21,2.2 12.67,6.65 3.45,4.45 5.16,9.88 5.16,16.35 0,6.32 -1.74,11.71 -5.24,16.16 -3.49,4.45 -7.68,6.65 -12.59,6.65 -4.95,0 -9.13,-2.2 -12.59,-6.65 -3.46,-4.45 -5.17,-9.84 -5.17,-16.16 0,-6.37 1.71,-11.76 5.17,-16.25 3.46,-4.5 7.64,-6.74 12.59,-6.74zm273.05 -200.37l0 50.31 -3.72 0c-2.29,-11.61 -4.8,-19.96 -7.57,-25.01 -2.76,-5.1 -6.58,-9.13 -11.43,-12.13 -2.69,-1.64 -7.42,-2.49 -14.19,-2.49l-10.92 0 0 143.89c0,9.6 0.4,15.6 1.2,17.99 0.8,2.39 2.4,4.5 4.73,6.28 2.37,1.82 5.57,2.72 9.65,2.72l4.73 0 0 4.78 -75.34 0 0 -4.78 4.77 0c4.15,0 7.5,-0.98 10.05,-2.91 1.82,-1.31 3.27,-3.51 4.33,-6.65 0.76,-2.2 1.17,-8.01 1.17,-17.43l0 -143.89 -10.48 0c-9.68,0 -16.7,2.67 -21.11,7.97 -6.15,7.4 -10.01,17.94 -11.64,31.66l-4.15 0 0 -50.31 129.92 0zm98.48 133.21l-50.62 0 -6.3 18.17c-2,6.09 -2.98,11.14 -2.98,15.13 0,5.29 1.64,9.18 4.88,11.71 1.93,1.45 6.66,2.57 14.2,3.33l0 4.78 -48.08 0 0 -4.78c5.17,-1.03 9.46,-3.84 12.77,-8.38 3.35,-4.59 7.5,-14.05 12.37,-28.39l51.68 -148.43 2.04 0 52.15 152.55c4.99,14.61 9.06,23.84 12.26,27.63 2.44,2.9 5.82,4.54 10.26,5.01l0 4.78 -69.94 0 0 -4.78 2.88 0c5.6,0 9.57,-1.03 11.83,-3.09 1.57,-1.45 2.33,-3.6 2.33,-6.37 0,-1.68 -0.18,-3.42 -0.62,-5.2 -0.14,-0.8 -1.2,-4.31 -3.2,-10.44l-7.9 -23.23zm-3.42 -10.12l-21.58 -63.47 -22.09 63.47 43.67 0zm-41.34 -188.85l32.1 0 12.45 47.49 -9.06 0 -35.48 -47.49zm191.53 247.31l0 4.78 -75.33 0 0 -4.78 4.77 0c4.19,0 7.57,-0.98 10.12,-2.91 1.86,-1.31 3.27,-3.51 4.26,-6.65 0.76,-2.2 1.17,-8.01 1.17,-17.43l0 -122.81c0,-9.6 -0.4,-15.6 -1.17,-17.98 -0.8,-2.39 -2.37,-4.5 -4.73,-6.28 -2.37,-1.83 -5.56,-2.72 -9.64,-2.72l-4.77 0 0 -4.78 75.33 0 0 4.78 -4.77 0c-4.15,0 -7.5,0.98 -10.04,2.9 -1.82,1.31 -3.27,3.51 -4.33,6.65 -0.76,2.2 -1.17,8.01 -1.17,17.42l0 122.81c0,9.6 0.4,15.6 1.2,17.99 0.84,2.39 2.4,4.5 4.77,6.28 2.37,1.82 5.57,2.72 9.57,2.72l4.77 0zm205.5 -185.76l0 64.64 -4.15 0c-3.13,-16.96 -8.91,-29.98 -17.43,-39.02 -8.52,-9.04 -18.16,-13.53 -28.93,-13.53 -8.99,0 -17.25,3.33 -24.79,10.02 -7.5,6.7 -12.99,15.46 -16.48,26.28 -4.48,13.86 -6.7,29.28 -6.7,46.23 0,16.67 1.64,31.9 4.88,45.62 3.27,13.68 8.37,24.08 15.32,31.06 6.95,7.03 15.98,10.54 27.04,10.54 9.1,0 17.39,-2.58 24.97,-7.68 7.53,-5.15 15.5,-13.96 23.87,-26.51l0 16.02c-8.08,10.91 -16.52,18.83 -25.29,23.75 -8.77,4.92 -19,7.35 -30.71,7.35 -15.43,0 -29.11,-3.98 -41.05,-11.94 -11.97,-7.96 -21.22,-19.44 -27.69,-34.33 -6.52,-14.94 -9.75,-30.82 -9.75,-47.68 0,-17.75 3.6,-34.61 10.81,-50.54 7.2,-15.92 16.92,-28.29 29.18,-37.1 12.23,-8.76 25.22,-13.16 39.01,-13.16 10.15,0 20.85,2.86 32.13,8.52 6.55,3.33 10.7,4.97 12.45,4.97 2.29,0 4.26,-1.08 5.93,-3.23 1.67,-2.15 2.73,-5.57 3.23,-10.26l4.15 0zm71.65 100.89l0 57.89c0,9.6 0.4,15.6 1.2,17.99 0.84,2.39 2.4,4.5 4.76,6.28 2.37,1.82 5.57,2.72 9.58,2.72l4.76 0 0 4.78 -75.33 0 0 -4.78 4.76 0c4.19,0 7.57,-0.98 10.12,-2.91 1.86,-1.31 3.28,-3.51 4.26,-6.65 0.76,-2.2 1.17,-8.01 1.17,-17.43l0 -122.81c0,-9.6 -0.4,-15.6 -1.17,-17.98 -0.8,-2.39 -2.36,-4.5 -4.73,-6.28 -2.36,-1.83 -5.56,-2.72 -9.64,-2.72l-4.76 0 0 -4.78 75.33 0 0 4.78 -4.76 0c-4.15,0 -7.5,0.98 -10.05,2.9 -1.82,1.31 -3.27,3.51 -4.33,6.65 -0.76,2.2 -1.17,8.01 -1.17,17.42l0 52.84 51.31 0 0 -52.84c0,-9.6 -0.4,-15.6 -1.16,-17.98 -0.8,-2.39 -2.37,-4.5 -4.8,-6.28 -2.4,-1.83 -5.6,-2.72 -9.64,-2.72l-4.7 0 0 -4.78 75.33 0 0 4.78 -4.69 0c-4.22,0 -7.61,0.98 -10.09,2.9 -1.85,1.31 -3.31,3.51 -4.37,6.65 -0.76,2.2 -1.16,8.01 -1.16,17.42l0 122.81c0,9.6 0.4,15.6 1.16,17.99 0.8,2.39 2.37,4.5 4.8,6.28 2.4,1.82 5.6,2.72 9.65,2.72l4.69 0 0 4.78 -75.33 0 0 -4.78 4.7 0c4.22,0 7.6,-0.98 10.08,-2.91 1.86,-1.31 3.31,-3.51 4.37,-6.65 0.76,-2.2 1.16,-8.01 1.16,-17.43l0 -57.89 -51.31 0zm189.93 84.87l0 4.78 -75.33 0 0 -4.78 4.77 0c4.19,0 7.57,-0.98 10.12,-2.91 1.86,-1.31 3.27,-3.51 4.26,-6.65 0.76,-2.2 1.16,-8.01 1.16,-17.43l0 -122.81c0,-9.6 -0.4,-15.6 -1.16,-17.98 -0.8,-2.39 -2.37,-4.5 -4.73,-6.28 -2.37,-1.83 -5.56,-2.72 -9.64,-2.72l-4.77 0 0 -4.78 75.33 0 0 4.78 -4.77 0c-4.15,0 -7.5,0.98 -10.05,2.9 -1.82,1.31 -3.27,3.51 -4.33,6.65 -0.76,2.2 -1.17,8.01 -1.17,17.42l0 122.81c0,9.6 0.4,15.6 1.2,17.99 0.84,2.39 2.4,4.5 4.77,6.28 2.37,1.82 5.57,2.72 9.57,2.72l4.77 0zm-8.3 -247.31l-35.37 47.49 -9.17 0 12.45 -47.49 32.1 0zm67.84 65.76l71.29 115.41 0 -80c0,-11.29 -1.24,-18.88 -3.75,-22.85 -3.42,-5.39 -9.17,-7.96 -17.21,-7.77l0 -4.78 47.82 0 0 4.78c-6.11,1.03 -10.22,2.34 -12.34,3.94 -2.08,1.64 -3.71,4.26 -4.91,7.91 -1.17,3.65 -1.75,9.93 -1.75,18.78l0 155.13 -3.6 0 -97.71 -155.31 0 118.78c0,10.77 1.89,18.08 5.71,21.87 3.82,3.79 8.22,5.67 13.14,5.67l3.42 0 0 4.78 -51.53 0 0 -4.78c8.01,-0.1 13.54,-2.2 16.7,-6.37 3.13,-4.17 4.7,-11.19 4.7,-21.17l0 -131.75 -3.02 -4.82c-3.06,-5.06 -5.75,-8.38 -8.12,-9.98 -2.33,-1.59 -5.72,-2.48 -10.12,-2.67l0 -4.78 51.28 0zm163.03 96.68l0 57.89c0,9.6 0.4,15.6 1.2,17.99 0.84,2.39 2.4,4.5 4.76,6.28 2.37,1.82 5.57,2.72 9.57,2.72l4.77 0 0 4.78 -75.33 0 0 -4.78 4.76 0c4.19,0 7.57,-0.98 10.12,-2.91 1.86,-1.31 3.28,-3.51 4.26,-6.65 0.76,-2.2 1.16,-8.01 1.16,-17.43l0 -122.81c0,-9.6 -0.4,-15.6 -1.16,-17.98 -0.8,-2.39 -2.36,-4.5 -4.73,-6.28 -2.36,-1.83 -5.57,-2.72 -9.64,-2.72l-4.76 0 0 -4.78 75.33 0 0 4.78 -4.77 0c-4.15,0 -7.49,0.98 -10.05,2.9 -1.82,1.31 -3.27,3.51 -4.33,6.65 -0.76,2.2 -1.16,8.01 -1.16,17.42l0 52.84 51.31 0 0 -52.84c0,-9.6 -0.4,-15.6 -1.17,-17.98 -0.8,-2.39 -2.36,-4.5 -4.8,-6.28 -2.4,-1.83 -5.61,-2.72 -9.64,-2.72l-4.7 0 0 -4.78 75.33 0 0 4.78 -4.7 0c-4.22,0 -7.6,0.98 -10.08,2.9 -1.85,1.31 -3.31,3.51 -4.37,6.65 -0.76,2.2 -1.17,8.01 -1.17,17.42l0 122.81c0,9.6 0.4,15.6 1.17,17.99 0.8,2.39 2.37,4.5 4.8,6.28 2.4,1.82 5.61,2.72 9.65,2.72l4.7 0 0 4.78 -75.33 0 0 -4.78 4.7 0c4.22,0 7.6,-0.98 10.08,-2.91 1.86,-1.31 3.31,-3.51 4.37,-6.65 0.76,-2.2 1.17,-8.01 1.17,-17.43l0 -57.89 -51.31 0z"/>
  </g>
 </g>
</svg>
