<svg id="Layer_1" data-name="Layer 1" xmlns="http://www.w3.org/2000/svg" viewBox="0 0 1354.4 176.22"><defs><style>.cls-1{fill:#004f9f;}.cls-1,.cls-2{fill-rule:evenodd;}.cls-2{fill:#18519f;}.cls-3{font-size:32.77px;fill:#9d9d9c;font-family:Arial-BoldMT, Arial;font-weight:700;}.cls-4{letter-spacing:-0.04em;}.cls-5{letter-spacing:-0.02em;}</style></defs><path class="cls-1" d="M97.23,61.08h10.08l.18-.1h1.09l.28-.37h.27l.36-.18h.28v-.18l.36-.27h.27v-.55l.37-.09v-.18H111V57.82h.36V55.55l-.36-.19v-1l-.27-.36v-.1h-.36v-.54h-.28v-.19h-.36v-.36h-.27v-.09h-.36l-.28-.18h-.72v-.36H97.23v8.9Zm-6.82,21V46.18h17.35l.37.09h2.27v.36h1.27v.19h.73l.27.27h.55l.09.18h.36v.18h.63v.18h.28v.28H115v.36h.36v.18h.19v.09h.28v.37H116v.18h.36v.27h.18v.27l.08.1.19.36.36.36v.09h.18v.55h.27v.18l.18.27v.18l.1.19v.63l.36.19v.45l.18.18v1h.18v3.45l-.18.37v1l-.18.19v.27l-.37.36v.27l-.09.19V61h-.18v.09l-.27.18v.37h-.17v.18l-.37.27v.36h-.18l-.09.18v.19l-.18.27h-.37v.18l-.18.18h-.27l-.18.27-.19.37h-.18l-.36.18-.09.27h-.18l-.28.27h-.36v.1h-.36l-.09.36H113l-.63.18H112l-.36.18h-.27l-.37.45h-.63l-.27.18h-.37v.18h.37v.27h.27v.18h.36v.19H111v.37h.37v.09h.27v.18l.36.55h.37v.27h.27l.36.18.19.37v.08h.08v.19h.28v.36h.09v.18H114v.37h.27v.09l.19.19.09.36v.28h.36v.18l.18.18.18.18V72l.18.37.28.18.18.09V73l.36.18.18.19v.36l.09.27.18.18v.37l.37.09.18.18,4,7.27h-8.08l-5.09-7.91-.36-.18v-.27l-.27-.37v-.18l-.18-.18-.37-.37-.09-.09v-.18l-.18-.36v-.27l-.27-.18-.18-.19-.18-.18V70.9l-.37-.37-.09-.18v-.09h-.18V69.9H105v-.18h-.18v-.37l-.1-.18-.36-.09-.18-.36-.18-.18-.27-.19h-.19v-.09h-.18v-.54H103v-.18h-.27v-.09h-1v-.36H97.23v15Zm-14.91,0,0-35.89h6.91l0,35.88Zm-24.34,0L39,46.16h7.45l8.71,26.35,8.46-26.34h7.27L58.7,82.05ZM44.37,34.17l71.59,0h2.27l.82.36h.54l.82.19.63.36.46.18.82.46.45.18.55.27.81.55.46.54.54.09.36.55.73.27.27.55.55.63.27.55.73.64.27.63.36.37.18.81.28.64.18.45.09.73.54.64.18.82v36.7l-.19.81-.54.91-.09.46-.18.54-.28.45-.18.83-.36.63-.28.55-.72.63-.28.36-.54.64-.27.63-.73.37-.36.45-.55.37-.45.27-.82.72-.55.1-.45.27-.82.45-.46.36-.63.1-.82.17H119l-.82.37h-2.27l-71.59,0H42.16l-.91-.37h-.64l-.81-.17-.64-.1-.45-.36-.82-.46L37.44,92l-.37-.09-.73-.73-.81-.27-.27-.36-.46-.46-.54-.36-.64-.64-.27-.63L33,88.12l-.45-.63-.64-.55-.27-.63-.27-.82L31.17,85l-.09-.54L30.72,84l-.1-.92-.27-.81v-.64L30.08,81V79.58l0-31.16V47.06l.27-.82v-.63l.27-.82.09-.64.37-.73.09-.45.18-.64.28-.81.27-.37.63-.63.46-.64.36-.54.28-.64.63-.55.55-.27.45-.54.27-.09.82-.55.73-.54.36-.27.46-.19.81-.45.46-.18.63-.36.82-.19h.64l.91-.37h2.18Z"/><path class="cls-1" d="M18.1,48.51V79.67h7.09V48.51ZM42.28,21.63l-4.72.72L33,24.07l-4.27,2.27L25.2,29.7l-3,4L20,38.15l-1.28,5.18-.64,5.18h7.09l.46-4L26.74,41l1.55-3.27,2.09-3L33,32.25l2.82-1.63,3.27-1.18,3.18-.18V21.63Zm76.05,0-76,0v7.63l76,0V21.67Zm24.24,26.9-.73-5.18-1.27-5.18-2.17-4.45-3-4-3.54-3.36-4.27-2.28-4.54-1.73-4.72-.72V29.3l3.27.18,3.18,1.18,2.82,1.64,2.63,2.45,2.09,3L133.85,41l1.09,3.55.45,4Zm0,31.16,0-31.16h-7.18V79.73Zm-24.27,27L123,106l4.54-1.72,4.27-2.36,3.55-3.26,3-4,2.18-4.54,1.27-5.18.73-5.18h-7.17l-.46,4-1.09,3.54-1.55,3.37-2.09,3-2.63,2.46-2.82,1.63-3.18,1.17-3.27.19v7.63Zm-76,0,76,0V99.07l-76,0v7.63Zm-24.15-27,.63,5.17L20,90l2.18,4.55,3,4,3.54,3.27L33,104.2l4.54,1.73,4.72.73V99l-3.18-.19L35.8,97.66,33,96l-2.63-2.46-2.09-3-1.54-3.37-1.09-3.54-.45-4Z"/><path class="cls-2" d="M215.3,73.88l9.92-39.39c0-.91.5-1.83.5-2.75a17.67,17.67,0,0,0,.5-2.28,3.4,3.4,0,0,0-2-3.2c-.49-.92-1.48-1.38-3.47-1.38V21.21h13.9v3.67a7.27,7.27,0,0,0-4.46,2.74c-.5.46-1.5,3.22-2.49,6.87l-15.88,69.15H199.92L181.05,24.88h-4.46V21.21h32.27v3.67h-5Z"/><path class="cls-2" d="M240.12,29.46c0-3.2.5-5.95,2.49-8.25,2-1.37,4.46-2.74,6.93-2.74s5,1.37,7,2.74c2,1.84,2.48,4.59,2.48,7.79v1.38c0,4.11-.5,7.31-2.48,9.16a7.42,7.42,0,0,1-6.46,3.2c-2.47,0-4.46-.92-6.95-3.2a13.82,13.82,0,0,1-3-9.16Zm1,70.52V51h-4.47V47.77a96.12,96.12,0,0,0,10.93-.91C252,46.41,255.5,46,259,46v54h3v3.66H236.64V100Z"/><path class="cls-2" d="M309.6,80.3H287.77V76.63h3.47V56.93a21.38,21.38,0,0,0-1-6c-1-1.37-1.48-1.83-2.47-1.83V46c7,0,12.4,2.75,16.37,9.15q6,8.24,6,20.61v1.83c0,.47-.5,1.83-.5,2.76M287.77,99.07c1,1.82,2.47,2.29,4.47,2.29s4.46-.92,6.94-3.21a23.34,23.34,0,0,0,5.95-8.7l2.49,1.37c-3,6.42-6,10.54-9.43,12.82-2.48,2.29-5.45,2.76-9.43,2.76h-1Zm0-18.77H284.3L283.8,83a35.38,35.38,0,0,0,3,14.65c0,.46.5.92,1,1.38v7.33c-7.45,0-12.91-2.76-16.87-8.71s-5.47-12.83-5.47-21.06,1.5-15.12,5.47-21.07q5.94-9.62,16.37-9.61h.5v3.2A3.25,3.25,0,0,0,285.29,51a13.12,13.12,0,0,0-1.49,6.87V76.63h4Z"/><path class="cls-2" d="M312.58,50.07v-2.3h1c3,0,6.46-1.82,9.93-5,5-3.2,7.44-8.7,9.43-16h1.48V47.77h7.95v2.3h-7.95V94.48c0,3.21.5,5,1.5,5s2-1.37,3.47-5a22.24,22.24,0,0,0,2-9.62h2c0,6.88-1.48,12.83-4.46,16.5-3,4.11-6.45,6-10.42,6-3.47,0-5.47-1.38-8-4.12-2.48-2.3-3.47-6.41-3.47-11.45V50.07Z"/><path class="cls-2" d="M349.8,100V50.07h-4.47v-2.3a72.15,72.15,0,0,0,9.93-.91,58.39,58.39,0,0,0,10.93-2.29V56a31.75,31.75,0,0,1,6-8.25c2.47-1.82,5-3.2,6.94-3.2,3,0,5.46,1.38,7.45,5,2.47,3.21,3.47,7.32,4,12.82V100H394v3.66H370.65V100h3V63.35c0-3.21,0-5.5-.48-6.87-1-1.84-1.5-2.3-2.49-2.3-.5,0-1.48.46-2.48,2.75-1,1.83-1.49,4.12-2,7.33V100h3v3.66H345.33V100Z"/><path class="cls-2" d="M422.26,90.82v-16h-3V71.58h.49a6.28,6.28,0,0,1,2.48.47V56.93c0-2.74,0-5-1-6-.49-.91-1.49-1.37-2-1.83V44.57h1a23.5,23.5,0,0,1,11.41,3.2c5,2.75,7.45,7.33,7.45,13.28V90.82c0,4.12.5,6.42,1.49,6.42s1.49-1.38,3-2.76v3.67c-.49,2.29-2,4.12-4.46,6-2.49,1.36-4.47,2.29-6.95,2.29a6.57,6.57,0,0,1-5.45-2.29c-2-.92-3-3.22-4-6a40.74,40.74,0,0,1-3.47,4.58V99.07a5.1,5.1,0,0,0,2-2.29c1-1.84,1-3.66,1-6m-3-16c-1.49.45-2,1.37-2.48,3.21a38.37,38.37,0,0,0-1,8.23v3.21a13.61,13.61,0,0,0,.5,3.67c0,1.82.49,3.19.49,4.57,1,.92,1.49,1.38,2,1.38h.5v3.66c-1,.46-1.49.91-2.48,1.38a9.85,9.85,0,0,1-6.95,2.29,15.76,15.76,0,0,1-7.44-2.29c-2-1.84-3.48-4.13-3.48-6.42a53.3,53.3,0,0,1-1-8.24,17.53,17.53,0,0,1,5.46-13.28c3.47-3.67,7.93-5,13.4-5a6.52,6.52,0,0,0,2.48.45Zm0-30.23v4.58h-4c1.49,1.37,2,3.21,2.48,5a13,13,0,0,1,.5,4.12,11.88,11.88,0,0,1-3,7.78,9,9,0,0,1-6.45,2.75,7.1,7.1,0,0,1-5-2.29c-1.48-.91-2.47-3.2-3-6V59.23c0-6,2-9.62,6.95-12.37,2.49-1.37,6.45-1.84,11.42-2.29"/><path class="cls-2" d="M465,46.41V57.85a44,44,0,0,1,6-9.62,12.4,12.4,0,0,1,6.95-2.74c2.47,0,4.46.92,6.44,3.66a13.33,13.33,0,0,1,3,8.7,39.65,39.65,0,0,1,6-9.15,8.93,8.93,0,0,1,6.94-3.21c3,0,5.45,1.83,7.44,5.49s3,8.25,3,14.19V100h4v3.66H492.25V100h2V64.26c0-2.75-.5-4.57-.5-6.41-1-1.83-1.48-2.29-2-2.29-1,0-1.49.46-2,2.29-1,2.3-1,5-1,8.24V100h2v3.66H469.91V100h2.49V65.17a26.9,26.9,0,0,0-1-7.32c-.5-1.83-1-2.29-2-2.29-.5,0-1.49.92-2.48,2.75a33.46,33.46,0,0,0-1,7.78V100h2.47v3.66H445.1V100h4V50.07h-4v-2.3h5c4,0,7,0,8.43-.45a57.54,57.54,0,0,0,6.46-.91"/><polygon class="cls-2" points="546.85 24.88 540.9 24.88 540.9 21.21 574.13 21.21 574.13 24.88 568.69 24.88 568.69 99.98 574.13 99.98 574.13 103.64 541.38 103.64 541.38 99.98 546.85 99.98 546.85 24.88"/><path class="cls-2" d="M581.1,100V50.07h-4v-2.3a80.13,80.13,0,0,0,9.93-.91A68.15,68.15,0,0,0,598,44.57V56a18.66,18.66,0,0,1,5.95-8.25c2.49-1.82,4.47-3.2,6.45-3.2,3.47,0,6,1.38,7.94,5,2.48,3.21,3.48,7.32,4,12.82V100h3.47v3.66H602.44V100h3V63.35a20.87,20.87,0,0,0-1-6.87c-.5-1.84-1-2.3-2-2.3s-2,.46-3,2.75A72.21,72.21,0,0,0,598,64.26V100h3v3.66H577.12V100Z"/><path class="cls-2" d="M653.56,50.07h-3.47l9.42,35.72L666,60.6V58.31a7.21,7.21,0,0,0,.5-3.21c0-3.2-1-5-4-5v-2.3H674.9v2.3a5.65,5.65,0,0,0-3.47,2.29c0,.46-1.5,3.2-3,7.33l-11.42,44H646.1L631.71,50.07h-4.46v-2.3h26.31Z"/><path class="cls-2" d="M721.55,80.3H699.22V76.63h4V56.93a21.39,21.39,0,0,0-1-6,3.73,3.73,0,0,0-2.47-1.83h-.5V46c7.44,0,12.41,2.75,16.88,9.15,4,5.49,5.45,12.37,5.45,20.61V80.3ZM699.22,99.52a6.33,6.33,0,0,0,4.46,1.84c2.49,0,4.46-.92,7.45-3.21a47.37,47.37,0,0,0,6-8.7l2.49,1.37c-3,6.42-6.46,10.54-9.44,12.82-2.47,2.29-6,2.76-9.92,2.76h-1Zm0-19.22h-3l-.5,2.74c0,6.41,1,11.44,2.48,14.65.5.46.5,1.38,1,1.83v6.88c-7,0-12.42-2.76-16.87-8.71a40.7,40.7,0,0,1-5.47-21.06,40.68,40.68,0,0,1,5.47-21.07q5.94-9.62,16.37-9.61h.5v3.2c-1,0-1.49.92-2.48,1.83a22.85,22.85,0,0,0-1,6.87V76.63h3.48Z"/><path class="cls-2" d="M748.84,48.23,754.31,46h2l1,20.14h-2c-1.49-5.94-4-10.53-6.94-13.27-2.49-3.21-5-4.12-7.45-4.12a5.6,5.6,0,0,0-3,.91c-1,1.37-1.49,2.29-1.49,3.21,0,2.74,1.49,5,5,7.78,3.47,2.29,6.46,3.66,9.44,5.95a15.39,15.39,0,0,1,6.94,11.91,31.81,31.81,0,0,1,.5,6.87c0,6.41-1,11.45-4,15.11a10.31,10.31,0,0,1-9.44,5.49,8.88,8.88,0,0,1-5-1.37,15.15,15.15,0,0,1-5.47-2.75l-6,4.12H726L725.52,83h2c2.5,6.87,5,11.9,8.44,15.57,2.48,2.75,5.46,4.12,7.45,4.12,1.48,0,3,0,3.47-1.37a4,4,0,0,0,2-3.67A5.8,5.8,0,0,0,747.36,94a5.9,5.9,0,0,0-2.49-3.2c-4-1.83-7.93-4.12-11.41-6-5-3.65-7.44-10.06-7.94-18.77A34.17,34.17,0,0,1,728,52.82a12.14,12.14,0,0,1,4.48-5c1.49-.91,2.48-1.82,4-1.82a9.81,9.81,0,0,1,3.48-.93,12.46,12.46,0,0,1,4,.93,48.31,48.31,0,0,1,5,2.28"/><path class="cls-2" d="M759.78,50.07v-2.3h1c3.47,0,6.94-1.82,10.42-5,4.47-3.2,7.44-8.7,8.94-16h2V47.77H790v2.3h-7.95V94.48c0,3.21.5,5,1,5,1.5,0,2.48-1.37,3.48-5a22.24,22.24,0,0,0,2-9.62H791c0,6.88-1.5,12.83-5,16.5-3,4.11-6.45,6-10.42,6a8.91,8.91,0,0,1-7.45-4.12c-2.48-2.3-3.47-6.41-3.47-11.45V50.07Z"/><path class="cls-2" d="M811.88,46.41V57.85a43.64,43.64,0,0,1,6.46-9.62c2.48-1.82,4.45-2.74,6.45-2.74,3,0,5,.92,6.94,3.66a13.38,13.38,0,0,1,3,8.7,39.65,39.65,0,0,1,6-9.15c2.48-2.29,5-3.21,7-3.21,3.49,0,5.46,1.83,7.44,5.49a28.87,28.87,0,0,1,3.48,14.19V100H862v3.66H839.68V100h2.47V64.26a22.07,22.07,0,0,0-1-6.41c-.5-1.83-1-2.29-2-2.29-.49,0-1.49.46-2,2.29a20.92,20.92,0,0,0-1.48,8.24V100h2.48v3.66H817.35V100h2V65.17c0-3.2-.51-5.48-.51-7.32-.48-1.83-1.47-2.29-2-2.29-1,0-1.49.92-2.47,2.75-1,2.29-1,4.58-1,7.78V100h2v3.66H792.53V100h4V50.07h-4v-2.3h5c4,0,6.94,0,8.44-.45a40.47,40.47,0,0,0,6-.91"/><path class="cls-2" d="M909.17,80.3H887.33V76.63h3.46V56.93c0-2.3,0-4.11-1-6a3.3,3.3,0,0,0-2.48-1.83V46c6.93,0,12.4,2.75,16.37,9.15,4,5.49,5.47,12.37,5.47,20.61V80.3ZM887.33,99.52a6.3,6.3,0,0,0,4.45,1.84,10.55,10.55,0,0,0,7-3.21,31.88,31.88,0,0,0,6.45-8.7l2,1.37c-3.47,6.42-6.44,10.54-8.93,12.82-3,2.29-6,2.76-9.93,2.76h-1Zm0-19.22h-3.48V83c0,6.41.49,11.44,2,14.65.5.46,1,1.38,1.5,1.83v6.88c-7.46,0-12.92-2.76-16.88-8.71s-6-12.83-6-21.06,2-15.12,6-21.07q5.94-9.62,16.38-9.61h.5v3.2A2.51,2.51,0,0,0,884.84,51c-1,1.84-1,3.65-1,6.87V76.63h3.48Z"/><path class="cls-2" d="M917.59,100V50.07h-4.46v-2.3a72.3,72.3,0,0,0,9.93-.91A67.93,67.93,0,0,0,934,44.57V56c2-3.66,3.47-6.41,5.95-8.25s4.47-3.2,6.44-3.2c3.48,0,6,1.38,8,5,2.49,3.21,3.48,7.32,4,12.82V100h3.46v3.66H938.45V100h3V63.35c0-3.21,0-5.5-.5-6.87-1-1.84-1.49-2.3-2.47-2.3s-1.49.46-2.49,2.75c-1,1.83-1.48,4.12-2,7.33V100h3v3.66H913.13V100Z"/><path class="cls-2" d="M964.26,50.07v-2.3h.48c3.48,0,7-1.82,10.43-5,4.46-3.2,7.44-8.7,9.43-16h1.48V47.77H994v2.3h-7.95V94.48c0,3.21.5,5,1.5,5s2-1.37,3.47-5c1-3.2,2-6.4,2-9.62h2c0,6.88-1.49,12.83-5,16.5-2.47,4.11-5.95,6-9.92,6a9.78,9.78,0,0,1-7.94-4.12c-2-2.3-3.47-6.41-3.47-11.45V50.07Z"/><path class="cls-2" d="M1054.58,34.49c0-4.11-.49-6.41-2-7.78,0-.45-1-.91-2-1.37V21.21H1060c5.46,0,10.42,1.84,13.41,6.41a24.3,24.3,0,0,1,4.46,13.73,23.44,23.44,0,0,1-4,13.29,13.32,13.32,0,0,1-10.92,6c5.47.91,9.44,4.57,11.42,11,1.5,4.13,2,9.63,2,16,.48,6.86.48,10.07,1.48,10.07,0,0,.5,0,1.48-.91a25,25,0,0,1,2-3.66l2,1.36c-.49,3.67-2.47,6.41-5.45,8.7a12.63,12.63,0,0,1-8.93,3.67c-4.47,0-7.46-1.84-10.92-5.49q-4.49-5.51-4.48-16.5V69.76c0-3.67-.49-6-2-6.87,0-.46-.48-.46-1-.92V57.85a4.78,4.78,0,0,0,3-2.29,16.31,16.31,0,0,0,1-6Zm-4,69.15h2V100h-2Zm0-78.3c-1,0-2-.46-3.47-.46v33h3.47V62c-1,0-2-.46-3.47-.46V100h3.47v3.66h-30.78V100h6V24.88h-5.47V21.21h30.28Z"/><path class="cls-2" d="M1129,80.3h-21.83V76.63h3.47V56.93a21.76,21.76,0,0,0-1-6c-1-.91-1.48-1.83-2.48-1.83V46c7,0,12.41,3.2,16.38,9.15,3.48,5.49,5.45,12.37,5.45,20.61V80.3Zm-21.83,19.22c1,1.37,2.48,1.84,4.46,1.84s4-.92,6.46-3.21c3-2.29,4.47-5,6.46-8.7l2,1.37c-3,6.42-6,10.54-8.94,12.82-2.48,2.29-6,2.76-9.42,2.76h-1Zm0-19.22h-4V83c0,6.41,1,11.44,2.49,14.65.5.46,1,1.38,1.48,1.83v6.88c-7.45,0-13.4-2.76-16.87-8.71-4-6-6-12.83-6-21.06s2-15.12,6-21.07c4-6.41,8.93-9.61,15.89-9.61h1v3.2h-.5a2.48,2.48,0,0,0-2,1.83,13,13,0,0,0-1.49,6.87V76.63h4Z"/><path class="cls-2" d="M1157.81,50.07h-4l9.43,35.72,6.44-25.19c0-.91,0-1.84.5-2.29,0-.92.5-2.29.5-3.21,0-3.2-1.5-5-5-5v-2.3h12.9v2.3a5.67,5.67,0,0,0-3.47,2.29c0,.46-1,3.2-3,7.33l-11.4,44h-10.92l-14.39-53.57h-4v-2.3h26.31Z"/><path class="cls-2" d="M1183.62,29.46a12.19,12.19,0,0,1,3-8.25c2-1.37,4-2.74,6.45-2.74s5,1.37,6.94,2.74c2,1.84,2.48,4.59,2.48,7.79v1.38c0,4.11-.5,7.31-2.48,9.16-1.49,2.28-3.47,3.2-6.46,3.2-2.48,0-4.46-.92-6.93-3.2a13.77,13.77,0,0,1-3-9.16Zm1,70.52V51h-4.48V47.77a95.59,95.59,0,0,0,10.92-.91c4.47-.45,8-.91,11.42-.91v54h3v3.66h-25.32V100Z"/><path class="cls-2" d="M1253.1,80.3h-21.83V76.63h3.47V56.93a22.16,22.16,0,0,0-1-6c-1-1.37-1.5-1.83-2.49-1.83V46c6.94,0,12.41,2.75,16.38,9.15q6,8.24,5.95,20.61v1.83a6.34,6.34,0,0,1-.5,2.76m-21.83,19.22c1,1.37,2.49,1.84,4.47,1.84s4.46-.92,7-3.21a23.72,23.72,0,0,0,6-8.7l2.47,1.37c-3,6.42-6,10.54-9.43,12.82-2.48,2.29-5.46,2.76-9.43,2.76h-1Zm0-19.22h-3.48V83c0,6.41,1,11.44,2.49,14.65a3.31,3.31,0,0,0,1,1.83v6.88c-7,0-12.91-2.76-16.88-8.71a40.79,40.79,0,0,1-5.46-21.06,40.78,40.78,0,0,1,5.46-21.07q6-9.62,16.38-9.61h.5v3.2a2.52,2.52,0,0,0-2.48,1.83,22.85,22.85,0,0,0-1,6.87V76.63h3.48Z"/><path class="cls-2" d="M1280.41,50.07h-2.48l8.93,37.09,3.47-13.28-5-23.81h-3.48v-2.3h24.83v2.3h-4.47l8.44,37.09,6.44-27.47c0-1.84.49-3.67.49-5a36.83,36.83,0,0,0-.49-3.66,3.91,3.91,0,0,0-2.47-.91v-2.3h10.92v2.3c-1.49.91-2.5,1.37-3,2.29a17.17,17.17,0,0,0-2,5.49l-10.92,45.79h-12.41l-5.45-25.18-6,25.18H1273l-12.41-53.57h-4v-2.3h23.83Z"/><text class="cls-3" transform="translate(400.96 154.36)"><tspan class="cls-4">A</tspan><tspan x="22.45" y="0" xml:space="preserve"> SPECIA</tspan><tspan class="cls-5" x="153.54" y="0">L</tspan><tspan x="172.97" y="0" xml:space="preserve"> EDITION OF BAO DAU TU</tspan></text></svg>